0
SECTION
2
HEADER
9
$INSUNITS
70
1
9
$ACADVER
1
AC1014
9
$HANDSEED
5
FFFF
0
ENDSEC
0
SECTION
2
TABLES
0
TABLE
2
VPORT
5
8
100
AcDbSymbolTable
0
ENDTAB
0
TABLE
2
LTYPE
5
5
100
AcDbSymbolTable
0
LTYPE
5
14
100
AcDbSymbolTableRecord
100
AcDbLinetypeTableRecord
2
BYBLOCK
70
0
0
LTYPE
5
15
100
AcDbSymbolTableRecord
100
AcDbLinetypeTableRecord
2
BYLAYER
70
0
0
ENDTAB
0
TABLE
2
LAYER
5
2
100
AcDbSymbolTable
70
2
0
LAYER
5
50
100
AcDbSymbolTableRecord
100
AcDbLayerTableRecord
2
0
70
0
6
CONTINUOUS
0
ENDTAB
0
TABLE
2
STYLE
5
3
100
AcDbSymbolTable
70
1
0
STYLE
5
11
100
AcDbSymbolTableRecord
100
AcDbTextStyleTableRecord
2
STANDARD
70
0
0
ENDTAB
0
TABLE
2
VIEW
5
6
100
AcDbSymbolTable
70
0
0
ENDTAB
0
TABLE
2
UCS
5
7
100
AcDbSymbolTable
70
0
0
ENDTAB
0
TABLE
2
APPID
5
9
100
AcDbSymbolTable
70
2
0
APPID
5
12
100
AcDbSymbolTableRecord
100
AcDbRegAppTableRecord
2
ACAD
70
0
0
ENDTAB
0
TABLE
2
DIMSTYLE
5
A
100
AcDbSymbolTable
70
1
0
ENDTAB
0
TABLE
2
BLOCK_RECORD
5
1
100
AcDbSymbolTable
70
1
0
BLOCK_RECORD
5
1F
100
AcDbSymbolTableRecord
100
AcDbBlockTableRecord
2
*MODEL_SPACE
0
BLOCK_RECORD
5
1B
100
AcDbSymbolTableRecord
100
AcDbBlockTableRecord
2
*PAPER_SPACE
0
ENDTAB
0
ENDSEC
0
SECTION
2
BLOCKS
0
BLOCK
5
20
100
AcDbEntity
100
AcDbBlockBegin
2
*MODEL_SPACE
0
ENDBLK
5
21
100
AcDbEntity
100
AcDbBlockEnd
0
BLOCK
5
1C
100
AcDbEntity
100
AcDbBlockBegin
2
*PAPER_SPACE
0
ENDBLK
5
1D
100
AcDbEntity
100
AcDbBlockEnd
0
ENDSEC
0
SECTION
2
ENTITIES
0
LWPOLYLINE
5
100
100
AcDbEntity
8
0
100
AcDbPolyline
90
66
70
1
43
0.0
10
-0.49999999994555872
20
-2.9251374194879335e-07
10
-5.0863931334463864e-12
20
-2.9251370529631077e-07
10
-4.2121337039463651e-11
20
5.8124997083622247
10
-0.49999999976220499
20
5.8124997083625694
10
-0.49999999976168463
20
5.9374997082756487
10
-4.2156409890633968e-11
20
5.9374997082757472
10
-4.3787283510351969e-11
20
11.749999708562486
10
-0.50000000004503831
20
11.749999708562557
10
-0.50000000004507472
20
11.874999708577695
10
-1.0000000000450746
20
11.8749997085775
10
-1.0001719226841073
20
11.749999708562374
10
-1.500171922684107
20
11.749999708563349
10
-1.500016888830465
20
11.874999708577461
10
-2.0000172698667567
20
11.874999708577324
10
-2.0001723037290589
20
11.749999708563379
10
-2.5001726945397884
20
11.74999970856341
10
-2.5000176606930524
20
11.874999708577606
10
-3.0000180549544799
20
11.874999708577469
10
-3.0001730887721134
20
11.749999708563442
10
-3.5001734638452215
20
11.749999708563472
10
-3.5000184299946011
20
11.874999708577569
10
-3.9999999999469567
20
11.874999708577432
10
-3.9999999999469567
20
11.124999708577571
10
-3.8749999999174207
20
11.124999708577569
10
-3.8749999999173674
20
10.374999708578512
10
-3.9999999999472307
20
10.374999708578503
10
-3.9999999999469567
20
9.6249997085782759
10
-3.8749999999172609
20
9.6249997085782706
10
-3.8749999999172609
20
8.8749997085782937
10
-3.9999999999466826
20
8.8749997085782901
10
-3.9999999999466826
20
8.1249997085782919
10
-3.8749999999182165
20
8.1249997085893479
10
-3.8749999999172582
20
7.3749997085893462
10
-3.9999999999476392
20
7.3749997085891854
10
-3.9999999999466826
20
6.6249997085891845
10
-3.8749999999163003
20
6.6249997085893444
10
-3.8749999999153282
20
5.8749997085893453
10
-3.9999999999457256
20
5.8749997085891623
10
-3.9999999999447549
20
5.1249997085891623
10
-3.8749999999143587
20
5.1249997085892751
10
-3.874999999913384
20
4.3749997085890824
10
-3.9999999999437845
20
4.3749997085891481
10
-3.9999999999434865
20
3.6249997085891477
10
-3.8749999999124087
20
3.6249997085891477
10
-3.8749999999119962
20
2.8749997085891486
10
-3.9999999999431801
20
2.8749997085902375
10
-3.9999999999428781
20
2.1249997085900492
10
-3.8749999999115836
20
2.1249997085889643
10
-3.8749999999185212
20
1.3749997085939907
10
-3.9999999999425757
20
1.3749997085942158
10
-3.999999999943916
20
0.6249997085942155
10
-3.8749999999254587
20
0.62499970859382814
10
-3.8749999999277875
20
-0.12500029141977045
10
-3.4999999999328577
20
-0.12500029142003666
10
-3.4999999999329012
20
-2.9251154328742973e-07
10
-2.9999999999583342
20
-2.9251185242587277e-07
10
-2.9999999999582321
20
-0.12500029142039157
10
-2.4999999999643356
20
-0.12500029142074651
10
-2.4999999999643512
20
-2.9251216332517561e-07
10
-1.9999999999597622
20
-2.9251247071956548e-07
10
-1.9999999999597622
20
-0.12500029142110142
10
-1.4999999999799067
20
-0.12500029142145633
10
-1.4999999999799067
20
-2.9251277305632215e-07
10
-0.99999999997990685
20
-2.9251308212900124e-07
10
-0.99999999992242561
20
-0.12500029142250402
10
-0.49999999994556432
20
-0.12500029142217145
0
CIRCLE
5
101
100
AcDbEntity
8
0
100
AcDbCircle
10
-2.0000000000226028
20
2.8749997085788728
30
0
40
0.15624999999999997
0
CIRCLE
5
102
100
AcDbEntity
8
0
100
AcDbCircle
10
-2.0000000000423639
20
8.8749997085778265
30
0
40
0.15624999999999997
0
LWPOLYLINE
5
103
100
AcDbEntity
8
0
100
AcDbPolyline
90
4
70
1
43
0.0
10
-1.4999999998437183
20
5.8124997083625622
10
-0.99999999984371835
20
5.8124997083625622
10
-0.99999999984371835
20
5.9374997082757464
10
-1.4999999998437183
20
5.9374997082757464
0
LWPOLYLINE
5
104
100
AcDbEntity
8
0
100
AcDbPolyline
90
4
70
1
43
0.0
10
-2.4999999977814671
20
5.9374997082757464
10
-1.9999999977814673
20
5.9374997082757464
10
-1.9999999977814673
20
5.8124997082757464
10
-2.4999999977814671
20
5.8124997082757464
0
LWPOLYLINE
5
105
100
AcDbEntity
8
0
100
AcDbPolyline
90
4
70
1
43
0.0
10
-3.4999999977814675
20
5.9374997082757464
10
-2.9999999977814666
20
5.9374997082757464
10
-2.9999999977814666
20
5.8124997082757464
10
-3.4999999977814675
20
5.8124997082757464
0
ENDSEC
0
SECTION
2
OBJECTS
0
DICTIONARY
5
C
100
AcDbDictionary
3
ACAD_GROUP
350
D
3
ACAD_MLINESTYLE
350
17
0
DICTIONARY
5
D
100
AcDbDictionary
0
DICTIONARY
5
1A
330
C
100
AcDbDictionary
0
DICTIONARY
5
17
100
AcDbDictionary
0
ENDSEC
0
EOF
