0
SECTION
2
HEADER
9
$INSUNITS
70
1
9
$ACADVER
1
AC1014
9
$HANDSEED
5
FFFF
0
ENDSEC
0
SECTION
2
TABLES
0
TABLE
2
VPORT
5
8
100
AcDbSymbolTable
0
ENDTAB
0
TABLE
2
LTYPE
5
5
100
AcDbSymbolTable
0
LTYPE
5
14
100
AcDbSymbolTableRecord
100
AcDbLinetypeTableRecord
2
BYBLOCK
70
0
0
LTYPE
5
15
100
AcDbSymbolTableRecord
100
AcDbLinetypeTableRecord
2
BYLAYER
70
0
0
ENDTAB
0
TABLE
2
LAYER
5
2
100
AcDbSymbolTable
70
2
0
LAYER
5
50
100
AcDbSymbolTableRecord
100
AcDbLayerTableRecord
2
0
70
0
6
CONTINUOUS
0
ENDTAB
0
TABLE
2
STYLE
5
3
100
AcDbSymbolTable
70
1
0
STYLE
5
11
100
AcDbSymbolTableRecord
100
AcDbTextStyleTableRecord
2
STANDARD
70
0
0
ENDTAB
0
TABLE
2
VIEW
5
6
100
AcDbSymbolTable
70
0
0
ENDTAB
0
TABLE
2
UCS
5
7
100
AcDbSymbolTable
70
0
0
ENDTAB
0
TABLE
2
APPID
5
9
100
AcDbSymbolTable
70
2
0
APPID
5
12
100
AcDbSymbolTableRecord
100
AcDbRegAppTableRecord
2
ACAD
70
0
0
ENDTAB
0
TABLE
2
DIMSTYLE
5
A
100
AcDbSymbolTable
70
1
0
ENDTAB
0
TABLE
2
BLOCK_RECORD
5
1
100
AcDbSymbolTable
70
1
0
BLOCK_RECORD
5
1F
100
AcDbSymbolTableRecord
100
AcDbBlockTableRecord
2
*MODEL_SPACE
0
BLOCK_RECORD
5
1B
100
AcDbSymbolTableRecord
100
AcDbBlockTableRecord
2
*PAPER_SPACE
0
ENDTAB
0
ENDSEC
0
SECTION
2
BLOCKS
0
BLOCK
5
20
100
AcDbEntity
100
AcDbBlockBegin
2
*MODEL_SPACE
0
ENDBLK
5
21
100
AcDbEntity
100
AcDbBlockEnd
0
BLOCK
5
1C
100
AcDbEntity
100
AcDbBlockBegin
2
*PAPER_SPACE
0
ENDBLK
5
1D
100
AcDbEntity
100
AcDbBlockEnd
0
ENDSEC
0
SECTION
2
ENTITIES
0
LWPOLYLINE
5
100
100
AcDbEntity
8
0
100
AcDbPolyline
90
105
70
1
43
0.0
10
-4.999998787255076
20
0.12499989570665715
10
-4.999998787255076
20
0.00023696240102916806
10
-6.999998787255076
20
0.00023696240102903871
10
-6.999998787255076
20
0.12499989570665715
10
-10.999998787255141
20
0.12499989570665737
10
-10.999998787255075
20
0.00023696240102867813
10
-12.999998787255075
20
0.00023696240102868903
10
-12.999998787255144
20
0.12499989570665748
10
-16.999998787255073
20
0.12499989570665766
10
-16.999998787255073
20
0.00023696240102867827
10
-18.999998787255073
20
0.00023696240102879832
10
-18.999998787255077
20
0.12499989570665775
10
-22.999998787255066
20
0.12499989570665813
10
-22.99999878725507
20
0.00023696240102904568
10
-24.99999878725507
20
0.00023696240102930095
10
-24.99999878725508
20
0.12499989570665851
10
-26.874998787255073
20
0.1249998957066376
10
-26.874998787255073
20
-1.0428436398218202e-07
10
-26.999998787255073
20
-1.0477155092759269e-07
10
-26.999998787255073
20
0.12499989522844868
10
-26.999998787255073
20
0.75000000046082127
10
-26.87499878725508
20
0.75000000046082316
10
-26.874998787255091
20
1.4999999999997518
10
-26.999891294518068
20
1.4999999999997518
10
-26.99999878727531
20
2.2499999999997518
10
-26.874998787255102
20
2.2499999999997473
10
-26.874998787255112
20
2.9999999999999831
10
-26.999998787255088
20
2.9999999999997518
10
-26.999998787255095
20
3.7499999999997522
10
-26.874998787255123
20
3.7499999999997522
10
-26.874998787255134
20
4.5000009999999069
10
-26.999998787255088
20
4.5000009999997523
10
-26.999998787255088
20
5.2500009999923538
10
-26.874998787255148
20
5.2500009999924124
10
-26.874998787255159
20
6.0000005669383309
10
-26.999998787255088
20
5.9999999999923546
10
-26.999998787255088
20
6.7500009999923538
10
-26.874998787255159
20
6.7500009999923556
10
-26.874998787255162
20
7.5000009999923556
10
-26.999998787255088
20
7.5070209080550949
10
-26.999998787255088
20
8.2570209080550949
10
-26.874998787255162
20
8.2570209080549706
10
-26.874998787255162
20
9.0070209080550949
10
-26.999891336936418
20
9.0070209080550949
10
-26.999998749826567
20
9.7570209080550949
10
-26.874998787255162
20
9.7570209080550967
10
-26.874998787255162
20
10.507020908055095
10
-26.999998787255553
20
10.507020908055095
10
-26.999998787255553
20
11.257020908055097
10
-26.874998787255162
20
11.257020908055097
10
-26.874998787255162
20
11.875236962401019
10
-24.999998787255365
20
11.875236962401022
10
-24.999998787255365
20
12.000236962401026
10
-22.999998787255368
20
12.000236962401027
10
-22.999998787255372
20
11.875236962401022
10
-18.999998787256665
20
11.875236962401022
10
-18.999998787256665
20
12.000236962401027
10
-16.999998787256672
20
12.000236962401026
10
-16.999998787256672
20
11.875236962401022
10
-12.999998787256683
20
11.875236962401022
10
-12.999998787256683
20
12.000236962401026
10
-10.999998787256672
20
12.000236962401022
10
-10.999998787256679
20
11.875236962401022
10
-6.9999987872566694
20
11.875236962401022
10
-6.9999987872566694
20
12.000236962401022
10
-4.9999987872566685
20
12.000236962401022
10
-4.9999987872566702
20
11.875236962401022
10
-0.99999878725667157
20
11.875236962401022
10
-0.99999878725667091
20
12.000236962401022
10
-5.7927807300895503e-07
20
12.000236962401022
10
-1.7892577805642456e-06
20
11.249999958624633
10
-0.25000178925778249
20
11.249999957497897
42
3.7320411583523581
10
-0.25000178725507444
20
10.749999957497897
10
-1.7872550725055795e-06
20
10.749999957497897
10
-1.787255073246677e-06
20
9.2499999574978968
10
0.24999821274492856
20
9.2499999574978968
42
-0.074173398091443063
10
0.34180901155936572
20
9.3654879133041486
42
1.1459096834142319
10
0.43610811346524353
20
9.4347851495491266
42
-1.717849153429948
10
0.43611751654062753
20
8.5652095093931688
42
1.1459131389375246
10
0.34181681130487224
20
8.6345047396914385
42
-0.074178749890236567
10
0.24999821274492848
20
8.7499999574978968
10
-1.7872550734852988e-06
20
8.7499999574978968
10
-1.7872550742082874e-06
20
7.2499999977665546
10
-0.25000178725507605
20
7.2499999977665546
42
3.7320411621694198
10
-0.25000178725507627
20
6.7499999977665555
10
-1.7872550744344005e-06
20
6.7499999977665555
10
-1.7872550749950597e-06
20
5.2499999977665546
10
0.25154626448989154
20
5.2499999977665519
42
-3.7257238743741712
10
0.25141979293068129
20
4.7500000137616114
10
0.0014199052200195249
20
4.7502369624010266
10
-1.7872550756944129e-06
20
3.2502369624010266
10
-0.2500017872550776
20
3.2502369624010266
42
0.074094434445975355
10
-0.34176323184313512
20
3.3655940158492599
42
0.87168671380486784
10
-0.43612329715207726
20
3.4347950228488506
42
1.7178161582831655
10
-0.43611589246022553
20
2.5652104070056461
42
0.87340249782096069
10
-0.34188328320238193
20
2.634593321097126
42
0.074269384585338438
10
-0.25000178725507782
20
2.7502369624010266
10
-1.7872550758885975e-06
20
2.7502369624010266
10
-1.787255076175218e-06
20
1.2502369624010263
10
0.24999826730087696
20
1.2502369624010263
42
-3.7320606455419552
10
0.24999821274492567
20
0.75023696240102944
10
-1.787255076255993e-06
20
0.75023696240102944
10
-1.7872550763937658e-06
20
0.00023696240102904557
10
-0.9999987872550764
20
0.00023696240102903871
10
-0.9999987872550764
20
0.12499989570665715
0
CIRCLE
5
101
100
AcDbEntity
8
0
100
AcDbCircle
10
-24.393700787255071
20
9.393700962401029
30
0
40
0.059055118110236685
0
CIRCLE
5
102
100
AcDbEntity
8
0
100
AcDbCircle
10
-23.606298787255074
20
9.393700962401029
30
0
40
0.059055118110236796
0
CIRCLE
5
103
100
AcDbEntity
8
0
100
AcDbCircle
10
-24.393700787255071
20
8.6062989624010289
30
0
40
0.059055118110236463
0
CIRCLE
5
104
100
AcDbEntity
8
0
100
AcDbCircle
10
-23.606298787255074
20
8.6062989624010289
30
0
40
0.059055118110235658
0
CIRCLE
5
105
100
AcDbEntity
8
0
100
AcDbCircle
10
-18.393700787401574
20
9.393700962401029
30
0
40
0.059055118110235845
0
CIRCLE
5
106
100
AcDbEntity
8
0
100
AcDbCircle
10
-17.606299009847394
20
9.3937011667447035
30
0
40
0.059055118110237316
0
CIRCLE
5
107
100
AcDbEntity
8
0
100
AcDbCircle
10
-18.393700787401574
20
8.6062989624010289
30
0
40
0.0590551181102364
0
CIRCLE
5
108
100
AcDbEntity
8
0
100
AcDbCircle
10
-17.606298787255074
20
8.6062989624010289
30
0
40
0.059055118110235873
0
CIRCLE
5
109
100
AcDbEntity
8
0
100
AcDbCircle
10
-17.606299212598422
20
9.393700962401029
30
0
40
0.059055118110237316
0
CIRCLE
5
110
100
AcDbEntity
8
0
100
AcDbCircle
10
-11.606299212598422
20
9.3937007874015741
30
0
40
0.059055118110237316
0
CIRCLE
5
111
100
AcDbEntity
8
0
100
AcDbCircle
10
-12.393700787255076
20
9.393700962401029
30
0
40
0.059055118110235845
0
CIRCLE
5
112
100
AcDbEntity
8
0
100
AcDbCircle
10
-11.606298787255076
20
8.6062989624010289
30
0
40
0.059055118110235873
0
CIRCLE
5
113
100
AcDbEntity
8
0
100
AcDbCircle
10
-11.606298787255076
20
9.393700962401029
30
0
40
0.059055118110237316
0
CIRCLE
5
114
100
AcDbEntity
8
0
100
AcDbCircle
10
-12.393700787255076
20
8.6062989624010289
30
0
40
0.0590551181102364
0
CIRCLE
5
115
100
AcDbEntity
8
0
100
AcDbCircle
10
-5.6062991637590152
20
9.393694946595442
30
0
40
0.059055118110237316
0
CIRCLE
5
116
100
AcDbEntity
8
0
100
AcDbCircle
10
-6.3937007872550744
20
9.393700962401029
30
0
40
0.059055118110235845
0
CIRCLE
5
117
100
AcDbEntity
8
0
100
AcDbCircle
10
-5.6062991637590152
20
8.6062989624010289
30
0
40
0.059055118110235873
0
CIRCLE
5
118
100
AcDbEntity
8
0
100
AcDbCircle
10
-5.606298920814945
20
9.393700962401029
30
0
40
0.059055118110237316
0
CIRCLE
5
119
100
AcDbEntity
8
0
100
AcDbCircle
10
-6.3937007872550744
20
8.6062989624010289
30
0
40
0.0590551181102364
0
CIRCLE
5
120
100
AcDbEntity
8
0
100
AcDbCircle
10
-23.606299212598422
20
3.393700962401029
30
0
40
0.059055118110237316
0
CIRCLE
5
121
100
AcDbEntity
8
0
100
AcDbCircle
10
-24.393700787255071
20
3.393700962401029
30
0
40
0.059055118110235845
0
CIRCLE
5
122
100
AcDbEntity
8
0
100
AcDbCircle
10
-23.606298787255074
20
2.6062989624010289
30
0
40
0.059055118110235873
0
CIRCLE
5
123
100
AcDbEntity
8
0
100
AcDbCircle
10
-23.606298787255074
20
3.3936992606342087
30
0
40
0.059055118110237316
0
CIRCLE
5
124
100
AcDbEntity
8
0
100
AcDbCircle
10
-24.393700787255071
20
2.6062989624010289
30
0
40
0.0590551181102364
0
CIRCLE
5
125
100
AcDbEntity
8
0
100
AcDbCircle
10
-17.606298787401574
20
3.393700962401029
30
0
40
0.059055118110237316
0
CIRCLE
5
126
100
AcDbEntity
8
0
100
AcDbCircle
10
-18.393700787401574
20
3.393700962401029
30
0
40
0.059055118110235845
0
CIRCLE
5
127
100
AcDbEntity
8
0
100
AcDbCircle
10
-17.606298787255074
20
2.6062989624010289
30
0
40
0.059055118110235873
0
CIRCLE
5
128
100
AcDbEntity
8
0
100
AcDbCircle
10
-17.606298787255074
20
3.3937018252924771
30
0
40
0.059055118110237316
0
CIRCLE
5
129
100
AcDbEntity
8
0
100
AcDbCircle
10
-18.393700787401574
20
2.6062989624010289
30
0
40
0.0590551181102364
0
CIRCLE
5
130
100
AcDbEntity
8
0
100
AcDbCircle
10
-11.606299212598422
20
3.393700962401029
30
0
40
0.059055118110237316
0
CIRCLE
5
131
100
AcDbEntity
8
0
100
AcDbCircle
10
-12.393700787255076
20
3.393700962401029
30
0
40
0.059055118110235845
0
CIRCLE
5
132
100
AcDbEntity
8
0
100
AcDbCircle
10
-11.606298787255076
20
2.6062989624010289
30
0
40
0.059055118110235873
0
CIRCLE
5
133
100
AcDbEntity
8
0
100
AcDbCircle
10
-11.606298787255076
20
3.3937014715926597
30
0
40
0.059055118110237316
0
CIRCLE
5
134
100
AcDbEntity
8
0
100
AcDbCircle
10
-12.393700787255076
20
2.6062989624010289
30
0
40
0.0590551181102364
0
CIRCLE
5
135
100
AcDbEntity
8
0
100
AcDbCircle
10
-5.6062991637590152
20
3.3936951293148052
30
0
40
0.059055118110237316
0
CIRCLE
5
136
100
AcDbEntity
8
0
100
AcDbCircle
10
-6.3937007872550744
20
3.393700962401029
30
0
40
0.059055118110235845
0
CIRCLE
5
137
100
AcDbEntity
8
0
100
AcDbCircle
10
-5.6062987872550769
20
2.6062989624010289
30
0
40
0.059055118110235873
0
CIRCLE
5
138
100
AcDbEntity
8
0
100
AcDbCircle
10
-5.6062987872550769
20
3.393700962401029
30
0
40
0.059055118110237316
0
CIRCLE
5
139
100
AcDbEntity
8
0
100
AcDbCircle
10
-6.3937007872550744
20
2.6062989624010289
30
0
40
0.0590551181102364
0
CIRCLE
5
140
100
AcDbEntity
8
0
100
AcDbCircle
10
-0.39370973359425881
20
9.393694946595442
30
0
40
0.059055118110235845
0
CIRCLE
5
141
100
AcDbEntity
8
0
100
AcDbCircle
10
-0.39370973359425881
20
8.6062989624010289
30
0
40
0.0590551181102364
0
LWPOLYLINE
5
142
100
AcDbEntity
8
0
100
AcDbPolyline
90
6
70
1
43
0.0
10
-25.471773580013544
20
8.7201701137963603
10
-25.468750551203758
20
8.9996618808644229
42
1.0064131288386762
10
-25.531246975862906
20
8.9996544593460825
10
-25.534256693526224
20
8.7213933639261452
42
-17.945691567432803
10
-25.471773580013544
20
8.7201701137963603
42
-0.054090723987938447
10
-25.519365406050401
20
8.7201701137963603
0
LWPOLYLINE
5
143
100
AcDbEntity
8
0
100
AcDbPolyline
90
6
70
1
43
0.0
10
-25.468749683811339
20
2.7204877242987933
10
-25.468749683811339
20
3.0002369624010292
42
0.99999999999999989
10
-25.531247890698847
20
3.0002369624010292
10
-25.531247890698847
20
2.7204877242989585
42
-17.944789950001368
10
-25.468749683811339
20
2.7204877242987924
42
-0.096789367245706831
10
-25.523378333360224
20
2.7204877242987933
0
ENDSEC
0
SECTION
2
OBJECTS
0
DICTIONARY
5
C
100
AcDbDictionary
3
ACAD_GROUP
350
D
3
ACAD_MLINESTYLE
350
17
0
DICTIONARY
5
D
100
AcDbDictionary
0
DICTIONARY
5
1A
330
C
100
AcDbDictionary
0
DICTIONARY
5
17
100
AcDbDictionary
0
ENDSEC
0
EOF
