0
SECTION
2
HEADER
9
$INSUNITS
70
1
9
$ACADVER
1
AC1014
9
$HANDSEED
5
FFFF
0
ENDSEC
0
SECTION
2
TABLES
0
TABLE
2
VPORT
5
8
100
AcDbSymbolTable
0
ENDTAB
0
TABLE
2
LTYPE
5
5
100
AcDbSymbolTable
0
LTYPE
5
14
100
AcDbSymbolTableRecord
100
AcDbLinetypeTableRecord
2
BYBLOCK
70
0
0
LTYPE
5
15
100
AcDbSymbolTableRecord
100
AcDbLinetypeTableRecord
2
BYLAYER
70
0
0
ENDTAB
0
TABLE
2
LAYER
5
2
100
AcDbSymbolTable
70
2
0
LAYER
5
50
100
AcDbSymbolTableRecord
100
AcDbLayerTableRecord
2
0
70
0
6
CONTINUOUS
0
ENDTAB
0
TABLE
2
STYLE
5
3
100
AcDbSymbolTable
70
1
0
STYLE
5
11
100
AcDbSymbolTableRecord
100
AcDbTextStyleTableRecord
2
STANDARD
70
0
0
ENDTAB
0
TABLE
2
VIEW
5
6
100
AcDbSymbolTable
70
0
0
ENDTAB
0
TABLE
2
UCS
5
7
100
AcDbSymbolTable
70
0
0
ENDTAB
0
TABLE
2
APPID
5
9
100
AcDbSymbolTable
70
2
0
APPID
5
12
100
AcDbSymbolTableRecord
100
AcDbRegAppTableRecord
2
ACAD
70
0
0
ENDTAB
0
TABLE
2
DIMSTYLE
5
A
100
AcDbSymbolTable
70
1
0
ENDTAB
0
TABLE
2
BLOCK_RECORD
5
1
100
AcDbSymbolTable
70
1
0
BLOCK_RECORD
5
1F
100
AcDbSymbolTableRecord
100
AcDbBlockTableRecord
2
*MODEL_SPACE
0
BLOCK_RECORD
5
1B
100
AcDbSymbolTableRecord
100
AcDbBlockTableRecord
2
*PAPER_SPACE
0
ENDTAB
0
ENDSEC
0
SECTION
2
BLOCKS
0
BLOCK
5
20
100
AcDbEntity
100
AcDbBlockBegin
2
*MODEL_SPACE
0
ENDBLK
5
21
100
AcDbEntity
100
AcDbBlockEnd
0
BLOCK
5
1C
100
AcDbEntity
100
AcDbBlockBegin
2
*PAPER_SPACE
0
ENDBLK
5
1D
100
AcDbEntity
100
AcDbBlockEnd
0
ENDSEC
0
SECTION
2
ENTITIES
0
LWPOLYLINE
5
100
100
AcDbEntity
8
0
100
AcDbPolyline
90
60
70
1
43
0.0
10
-2.9375010040816303
20
1.9999879427664862
10
-2.9375010040816303
20
3.9999887966294718
10
-1.0000000040810217
20
3.9999888266664718
10
-1.0000000000000024
20
3.8749648282458828
10
-4.081040809178205e-09
20
3.8749648282455778
10
-4.0811359104063372e-09
20
3.25
10
-0.25000000000009703
20
3.2499999999999964
42
3.7320508075688776
10
-0.25000000000008593
20
2.7499999999999969
10
-4.0812120087640481e-09
20
2.7500000000000027
10
-4.0811784398159021e-09
20
1.2500000000000029
10
0.24999999999995129
20
1.2500000000000091
42
-3.7320508075688377
10
0.24999999999997402
20
0.75000000000000944
10
-4.0811672501665204e-09
20
0.74999999999999967
10
-4.0811392760430652e-09
20
-1.8266613667329608e-22
10
-27.000000004081137
20
-1.2084821332612726e-12
10
-27.000000004081159
20
0.49999999999999994
10
-26.875000004081162
20
0.49999999999999994
10
-26.875000004081162
20
0.99999999999998879
10
-27.000000004081159
20
0.99999999999999989
10
-27.000000004081159
20
1.5
10
-26.875000004081162
20
1.5000000000000033
10
-26.875000004081162
20
1.999999999999996
10
-27.000000004081159
20
1.9999999999999998
10
-27.000000004081159
20
2.4999999999999996
10
-26.875000004081162
20
2.4999999999999996
10
-26.875000004081162
20
2.999999998979705
10
-27.000000000000025
20
2.9999999999999996
10
-26.999999995918891
20
3.4999999999999991
10
-26.875000004081162
20
3.4999999999999951
10
-26.875000004081162
20
3.9999889999999994
10
-24.999999995918895
20
3.9999888162490174
10
-25.000000008171245
20
3.8749654162490224
10
-23.000000000001105
20
3.8749652202479754
10
-22.999999995918895
20
3.9999884303720443
10
-21.062500995918896
20
3.9999884303720452
10
-21.062500995918896
20
1.9999879427664877
10
-20.937500901109615
20
1.9999879427664877
10
-20.93750090110947
20
3.9999884303720452
10
-19.000000000000025
20
3.9999884904460306
10
-18.999999999999996
20
3.8749648282458828
10
-17
20
3.8749648282458828
10
-17
20
3.9999885524578573
10
-15.062500901109622
20
3.9999885524578547
10
-15.062500901109622
20
1.9999879427664877
10
-14.937500901109624
20
1.9999879427664877
10
-14.937500901109232
20
3.9999885524578547
10
-13.000000000000025
20
3.99998861253184
10
-13.000000000000004
20
3.8749648282458828
10
-11.000000000000004
20
3.8749648282458828
10
-11.000000000000004
20
3.9999886745436672
10
-9.0625009011096349
20
3.999988674543665
10
-9.0625009011096349
20
1.9999879427664877
10
-8.9375009011096367
20
1.9999879427664877
10
-8.9375009011094715
20
3.999988674543665
10
-7.0000000000000195
20
3.9999887346176495
10
-6.9999999999999947
20
3.8749648282458828
10
-4.9999999999999947
20
3.8749648282458828
10
-4.9999999999999947
20
3.9999887966294758
10
-3.0625009011096433
20
3.9999887966294736
10
-3.0625009011096433
20
1.9999879427664862
0
ENDSEC
0
SECTION
2
OBJECTS
0
DICTIONARY
5
C
100
AcDbDictionary
3
ACAD_GROUP
350
D
3
ACAD_MLINESTYLE
350
17
0
DICTIONARY
5
D
100
AcDbDictionary
0
DICTIONARY
5
1A
330
C
100
AcDbDictionary
0
DICTIONARY
5
17
100
AcDbDictionary
0
ENDSEC
0
EOF
