0
SECTION
2
HEADER
9
$INSUNITS
70
1
9
$ACADVER
1
AC1014
9
$HANDSEED
5
FFFF
0
ENDSEC
0
SECTION
2
TABLES
0
TABLE
2
VPORT
5
8
100
AcDbSymbolTable
0
ENDTAB
0
TABLE
2
LTYPE
5
5
100
AcDbSymbolTable
0
LTYPE
5
14
100
AcDbSymbolTableRecord
100
AcDbLinetypeTableRecord
2
BYBLOCK
70
0
0
LTYPE
5
15
100
AcDbSymbolTableRecord
100
AcDbLinetypeTableRecord
2
BYLAYER
70
0
0
ENDTAB
0
TABLE
2
LAYER
5
2
100
AcDbSymbolTable
70
2
0
LAYER
5
50
100
AcDbSymbolTableRecord
100
AcDbLayerTableRecord
2
0
70
0
6
CONTINUOUS
0
ENDTAB
0
TABLE
2
STYLE
5
3
100
AcDbSymbolTable
70
1
0
STYLE
5
11
100
AcDbSymbolTableRecord
100
AcDbTextStyleTableRecord
2
STANDARD
70
0
0
ENDTAB
0
TABLE
2
VIEW
5
6
100
AcDbSymbolTable
70
0
0
ENDTAB
0
TABLE
2
UCS
5
7
100
AcDbSymbolTable
70
0
0
ENDTAB
0
TABLE
2
APPID
5
9
100
AcDbSymbolTable
70
2
0
APPID
5
12
100
AcDbSymbolTableRecord
100
AcDbRegAppTableRecord
2
ACAD
70
0
0
ENDTAB
0
TABLE
2
DIMSTYLE
5
A
100
AcDbSymbolTable
70
1
0
ENDTAB
0
TABLE
2
BLOCK_RECORD
5
1
100
AcDbSymbolTable
70
1
0
BLOCK_RECORD
5
1F
100
AcDbSymbolTableRecord
100
AcDbBlockTableRecord
2
*MODEL_SPACE
0
BLOCK_RECORD
5
1B
100
AcDbSymbolTableRecord
100
AcDbBlockTableRecord
2
*PAPER_SPACE
0
ENDTAB
0
ENDSEC
0
SECTION
2
BLOCKS
0
BLOCK
5
20
100
AcDbEntity
100
AcDbBlockBegin
2
*MODEL_SPACE
0
ENDBLK
5
21
100
AcDbEntity
100
AcDbBlockEnd
0
BLOCK
5
1C
100
AcDbEntity
100
AcDbBlockBegin
2
*PAPER_SPACE
0
ENDBLK
5
1D
100
AcDbEntity
100
AcDbBlockEnd
0
ENDSEC
0
SECTION
2
ENTITIES
0
LWPOLYLINE
5
100
100
AcDbEntity
8
0
100
AcDbPolyline
90
113
70
1
43
0.0
10
-1.999892509713505
20
8.1250002838133657
10
-1.9998925072032989
20
7.9999998396890017
10
-3.9998925072033047
20
7.9999997995259502
10
-3.9998925097135039
20
8.1250002436503106
10
-7.9998926023978107
20
8.1250001633242057
10
-7.9998925097135043
20
7.9999998396890017
10
-9.9998926023978107
20
7.9999998396890017
10
-9.9998926023978107
20
8.1250001231611506
10
-13.999892602397811
20
8.1250000428350404
10
-13.999892602397811
20
7.9999998396889982
10
-15.999892602397811
20
7.9999998396889964
10
-15.999892602397811
20
8.1250000026719871
10
-19.999892602397807
20
8.1249999223458751
10
-19.999892602397807
20
7.9999998396889964
10
-21.999892602397807
20
7.9999998396889964
10
-21.999892602397807
20
8.1249998821828218
10
-25.999892604907998
20
8.1249998018567116
10
-25.999892602397807
20
7.9999998396889964
10
-27.999892602397804
20
7.9999998396889964
10
-27.999892602397804
20
8.1249997616936565
10
-31.999892604907973
20
8.1249996813675462
10
-31.999892602397804
20
8.0000006203240837
10
-32.999892602397807
20
8.000000815482851
10
-32.999892456028725
20
8.7500008154828386
10
-32.749892456028768
20
8.750000766693141
42
3.7320508075688843
10
-32.75074521954911
20
9.2500000394869915
10
-33.000745219549103
20
9.2496607514583786
10
-33.002780945903098
20
10.749659370063812
10
-33.252780715671683
20
10.74932008233815
42
-0.072835401476622069
10
-33.342724473250748
20
10.636218949357533
42
1.1380454324611071
10
-33.435148802786031
20
10.564394069498496
42
-1.7112903579258048
10
-33.43514487123668
20
11.435609016279033
42
1.1737273059916304
10
-33.340995106938045
20
11.366938542028926
42
-0.075147943095906639
10
-33.247820071724263
20
11.249295473744208
10
-32.997820071906041
20
11.249305005426422
10
-32.999588455173985
20
12.74928395801075
10
-32.749588455213782
20
12.749288418032945
42
3.7320507992467418
10
-32.750410371335704
20
13.249287742486377
10
-33.000410371335704
20
13.248963899825377
10
-33.002353425671387
20
14.748962641338194
10
-33.252353215923549
20
14.748638798948916
42
-3.7320508075678931
10
-33.251445051591709
20
15.24863797418586
10
-33.001445051894642
20
15.248650287866724
10
-32.999243709183162
20
16.750367046339296
10
-32.749243977783834
20
16.750000575709329
42
0.073914591022645956
10
-32.657797536939846
20
16.635010135613047
42
0.8765627690501141
10
-32.563813334096707
20
16.565170118610013
42
1.7175157183138192
10
-32.563814260017004
20
17.434829136519969
42
0.87129967114370843
10
-32.658135946823009
20
17.365604798017596
42
0.074258923276572589
10
-32.750080994321848
20
17.249999875112138
10
-33.000080994321848
20
17.250006182286615
10
-33.000043151275982
20
18.750006181809258
10
-33.250043151196898
20
18.750012488984009
42
-3.7320508075685428
10
-33.249892516072478
20
19.250012466292858
10
-32.999892516072741
20
19.250012466489963
10
-32.999892516664019
20
20.000000924660995
10
-31.999892516664012
20
20.000000925449207
10
-31.99989251656547
20
19.875000925448195
10
-27.999892516565534
20
19.875000928601814
10
-27.999892516664016
20
20.000000928602798
10
-25.999892516664016
20
20.00000093017962
10
-25.999892516565549
20
19.875000930178622
10
-21.999892516565478
20
19.875000933332238
10
-21.999892516664016
20
20.000000933333695
10
-19.999892516664016
20
20.000000934909913
10
-19.999892516565478
20
19.875000934909043
10
-15.999892516565465
20
19.875000938062666
10
-15.999892516664017
20
20.000000938062829
10
-13.999892516664019
20
20.00000093963963
10
-13.999892516565231
20
19.875000939639417
10
-9.9998925165654722
20
19.87500094279299
10
-9.9998925166640191
20
20.000000942792898
10
-7.9998925166640182
20
20.000000944369674
10
-7.9998925165654677
20
19.875000944369766
10
-3.9998925165654664
20
19.875000947523343
10
-3.9998925166640178
20
20.000000947523358
10
-1.9998925166640178
20
20.000000949100141
10
-1.9998925165654675
20
19.875000949100123
10
-0.12489251656546498
20
19.875000950578382
10
-0.12489251607271946
20
19.250000950578389
10
0.00010748392728262438
20
19.250000950676935
10
0.0001074845185770529
20
18.500000950676935
10
-0.12489251548142484
20
18.500000950578386
10
-0.12489251489013022
20
17.750000950578386
10
0.00010748510987150118
20
17.750000950676935
10
0.00010748570116594409
20
17.000000950676931
10
-0.12489251429883561
20
17.000000950578386
10
-0.12489251370754094
20
16.250000902666432
10
0.00010748629246041569
20
16.250000902764981
10
0.00010748688375485716
20
15.500000902764981
10
-0.12489251311624627
20
15.500000865361661
10
-0.12489251252495089
20
14.749999902666431
10
0.00010748747505008087
20
14.749999902764982
10
0.00010748806634451328
20
13.999999902764982
10
-0.12489251193365626
20
13.999999902666431
10
-0.12489251134236241
20
13.25000088012251
10
0.0001074886576376359
20
13.250000880221059
10
0.00010748924893261771
20
12.500000880221068
10
-0.12489251075106779
20
12.500000878126006
10
-0.12489251015977236
20
11.749999880122516
10
0.00010748984022840333
20
11.749999880221067
10
0.00010749043152284205
20
10.999999880221067
10
-0.12489250956847772
20
10.999999878124298
10
-0.1248925089771831
20
10.249999880122516
10
0.00010749102281728022
20
10.249999880221067
10
0.00010749161411171141
20
9.499999880589991
10
-0.12489250838588847
20
9.4999998781242958
10
-0.12489250779459386
20
8.7499998804914405
10
0.00010749220540615673
20
8.749999880589991
10
0.00010749269815115317
20
8.1249998798532452
10
0.00010749269815115317
20
7.9999998798520542
10
-0.12489250730107963
20
7.9999998798520542
10
-0.12489250730106867
20
8.1250003214655191
0
CIRCLE
5
101
100
AcDbEntity
8
0
100
AcDbCircle
10
-2.6061915098788679
20
17.393699271637942
30
0
40
0.059055118110235658
0
CIRCLE
5
102
100
AcDbEntity
8
0
100
AcDbCircle
10
-2.6061915098788679
20
16.606299271637944
30
0
40
0.059055118110236955
0
CIRCLE
5
103
100
AcDbEntity
8
0
100
AcDbCircle
10
-3.3935935098788672
20
17.393699271637942
30
0
40
0.059055118110236719
0
CIRCLE
5
104
100
AcDbEntity
8
0
100
AcDbCircle
10
-3.3935935098788672
20
16.606299271637944
30
0
40
0.05905511811023547
0
CIRCLE
5
105
100
AcDbEntity
8
0
100
AcDbCircle
10
-8.6061915098788688
20
17.393699077440484
30
0
40
0.059055118110235658
0
CIRCLE
5
106
100
AcDbEntity
8
0
100
AcDbCircle
10
-8.6061915098788688
20
16.606299119345579
30
0
40
0.059055118110235658
0
CIRCLE
5
107
100
AcDbEntity
8
0
100
AcDbCircle
10
-9.393593509878869
20
17.393699077440484
30
0
40
0.059055118110236608
0
CIRCLE
5
108
100
AcDbEntity
8
0
100
AcDbCircle
10
-9.393593509878869
20
16.606299119345582
30
0
40
0.059055118110236497
0
CIRCLE
5
109
100
AcDbEntity
8
0
100
AcDbCircle
10
-14.606191509878865
20
17.393699077440484
30
0
40
0.059055118110235658
0
CIRCLE
5
110
100
AcDbEntity
8
0
100
AcDbCircle
10
-14.606191509878865
20
16.606299119345582
30
0
40
0.059055118110236976
0
CIRCLE
5
111
100
AcDbEntity
8
0
100
AcDbCircle
10
-15.393593509878858
20
17.393699077440484
30
0
40
0.059055118110235567
0
CIRCLE
5
112
100
AcDbEntity
8
0
100
AcDbCircle
10
-15.393593509878858
20
16.606299119345582
30
0
40
0.059055118110235658
0
CIRCLE
5
113
100
AcDbEntity
8
0
100
AcDbCircle
10
-20.606191509878862
20
17.393699077440484
30
0
40
0.059055118110235658
0
CIRCLE
5
114
100
AcDbEntity
8
0
100
AcDbCircle
10
-20.606191509878862
20
16.606299119345582
30
0
40
0.059055118110235484
0
CIRCLE
5
115
100
AcDbEntity
8
0
100
AcDbCircle
10
-21.393593509878862
20
17.393699077440484
30
0
40
0.059055118110237927
0
CIRCLE
5
116
100
AcDbEntity
8
0
100
AcDbCircle
10
-21.393593509878862
20
16.606299119345582
30
0
40
0.059055118110235658
0
CIRCLE
5
117
100
AcDbEntity
8
0
100
AcDbCircle
10
-26.606191509878865
20
17.393699077440488
30
0
40
0.059055118110237184
0
CIRCLE
5
118
100
AcDbEntity
8
0
100
AcDbCircle
10
-27.393593509878869
20
17.393699077440488
30
0
40
0.059055118110236608
0
CIRCLE
5
119
100
AcDbEntity
8
0
100
AcDbCircle
10
-26.606191509878865
20
16.606299119345579
30
0
40
0.059055118110236463
0
CIRCLE
5
120
100
AcDbEntity
8
0
100
AcDbCircle
10
-27.393593509878869
20
16.606299119345579
30
0
40
0.059055118110238704
0
CIRCLE
5
121
100
AcDbEntity
8
0
100
AcDbCircle
10
-32.606191509878862
20
11.393700827513591
30
0
40
0.059055118110238107
0
CIRCLE
5
122
100
AcDbEntity
8
0
100
AcDbCircle
10
-32.606191509878862
20
10.606298976944576
30
0
40
0.059055118110238454
0
CIRCLE
5
123
100
AcDbEntity
8
0
100
AcDbCircle
10
-27.393593509878869
20
11.393700827513591
30
0
40
0.059055118110234714
0
CIRCLE
5
124
100
AcDbEntity
8
0
100
AcDbCircle
10
-26.606191509878865
20
11.393700827513591
30
0
40
0.059055118110236629
0
CIRCLE
5
125
100
AcDbEntity
8
0
100
AcDbCircle
10
-27.393593509878869
20
10.606298976944576
30
0
40
0.059055118110236386
0
CIRCLE
5
126
100
AcDbEntity
8
0
100
AcDbCircle
10
-26.606191509878865
20
10.606298976944576
30
0
40
0.059055118110238454
0
CIRCLE
5
127
100
AcDbEntity
8
0
100
AcDbCircle
10
-21.393593509878862
20
11.393700827513591
30
0
40
0.059055118110236463
0
CIRCLE
5
128
100
AcDbEntity
8
0
100
AcDbCircle
10
-20.606191509878862
20
11.393700827513591
30
0
40
0.059055118110236664
0
CIRCLE
5
129
100
AcDbEntity
8
0
100
AcDbCircle
10
-20.606191509878862
20
10.606298827513591
30
0
40
0.059055118110235658
0
CIRCLE
5
130
100
AcDbEntity
8
0
100
AcDbCircle
10
-21.393593509878862
20
10.606298827513591
30
0
40
0.059055118110235658
0
CIRCLE
5
131
100
AcDbEntity
8
0
100
AcDbCircle
10
-15.393593509878858
20
11.393700827513591
30
0
40
0.059055118110236331
0
CIRCLE
5
132
100
AcDbEntity
8
0
100
AcDbCircle
10
-14.606191509878865
20
11.393700827513591
30
0
40
0.059055118110235845
0
CIRCLE
5
133
100
AcDbEntity
8
0
100
AcDbCircle
10
-15.393593509878858
20
10.606298827513591
30
0
40
0.059055118110236837
0
CIRCLE
5
134
100
AcDbEntity
8
0
100
AcDbCircle
10
-14.606191509878865
20
10.606298827513591
30
0
40
0.059055118110235873
0
CIRCLE
5
135
100
AcDbEntity
8
0
100
AcDbCircle
10
-9.393593509878869
20
11.393700827513591
30
0
40
0.059055118110236442
0
CIRCLE
5
136
100
AcDbEntity
8
0
100
AcDbCircle
10
-8.6061915098788688
20
11.393700827513591
30
0
40
0.059055118110236365
0
CIRCLE
5
137
100
AcDbEntity
8
0
100
AcDbCircle
10
-9.393593509878869
20
10.606298827513591
30
0
40
0.05905511811023656
0
CIRCLE
5
138
100
AcDbEntity
8
0
100
AcDbCircle
10
-8.6061915098788688
20
10.606298827513591
30
0
40
0.059055118110235713
0
CIRCLE
5
139
100
AcDbEntity
8
0
100
AcDbCircle
10
-3.3935935098788672
20
11.393700827513591
30
0
40
0.059055118110236192
0
CIRCLE
5
140
100
AcDbEntity
8
0
100
AcDbCircle
10
-2.6061915098788679
20
11.393700827513591
30
0
40
0.059055118110236136
0
CIRCLE
5
141
100
AcDbEntity
8
0
100
AcDbCircle
10
-3.3935935098788672
20
10.606298827513591
30
0
40
0.059055118110236081
0
CIRCLE
5
142
100
AcDbEntity
8
0
100
AcDbCircle
10
-2.6061915098788679
20
10.606298827513591
30
0
40
0.059055118110236171
0
LWPOLYLINE
5
143
100
AcDbEntity
8
0
100
AcDbPolyline
90
5
70
1
43
0.0
10
-1.4998925142582202
20
16.7207717640891
10
-1.4998925142582202
20
16.948486233488055
42
2.4502473216461564
10
-1.5513949420768085
20
16.998926261692997
10
-1.5513949420768076
20
16.723505613925521
42
-37.841216080501439
10
-1.5219419906462119
20
16.719615500856996
0
LWPOLYLINE
5
144
100
AcDbEntity
8
0
100
AcDbPolyline
90
5
70
1
43
0.0
10
-1.4783343763316452
20
10.719577249605434
10
-1.4783343763316452
20
10.99981216333526
42
1.0136514690344369
10
-1.52144780458026
20
10.999602847643708
10
-1.5214478045802586
20
10.719577031424759
42
-104.63646273824305
10
-1.5107151070403746
20
10.718958110465115
0
ENDSEC
0
SECTION
2
OBJECTS
0
DICTIONARY
5
C
100
AcDbDictionary
3
ACAD_GROUP
350
D
3
ACAD_MLINESTYLE
350
17
0
DICTIONARY
5
D
100
AcDbDictionary
0
DICTIONARY
5
1A
330
C
100
AcDbDictionary
0
DICTIONARY
5
17
100
AcDbDictionary
0
ENDSEC
0
EOF
