0
SECTION
2
HEADER
9
$INSUNITS
70
1
9
$ACADVER
1
AC1014
9
$HANDSEED
5
FFFF
0
ENDSEC
0
SECTION
2
TABLES
0
TABLE
2
VPORT
5
8
100
AcDbSymbolTable
0
ENDTAB
0
TABLE
2
LTYPE
5
5
100
AcDbSymbolTable
0
LTYPE
5
14
100
AcDbSymbolTableRecord
100
AcDbLinetypeTableRecord
2
BYBLOCK
70
0
0
LTYPE
5
15
100
AcDbSymbolTableRecord
100
AcDbLinetypeTableRecord
2
BYLAYER
70
0
0
ENDTAB
0
TABLE
2
LAYER
5
2
100
AcDbSymbolTable
70
2
0
LAYER
5
50
100
AcDbSymbolTableRecord
100
AcDbLayerTableRecord
2
0
70
0
6
CONTINUOUS
0
ENDTAB
0
TABLE
2
STYLE
5
3
100
AcDbSymbolTable
70
1
0
STYLE
5
11
100
AcDbSymbolTableRecord
100
AcDbTextStyleTableRecord
2
STANDARD
70
0
0
ENDTAB
0
TABLE
2
VIEW
5
6
100
AcDbSymbolTable
70
0
0
ENDTAB
0
TABLE
2
UCS
5
7
100
AcDbSymbolTable
70
0
0
ENDTAB
0
TABLE
2
APPID
5
9
100
AcDbSymbolTable
70
2
0
APPID
5
12
100
AcDbSymbolTableRecord
100
AcDbRegAppTableRecord
2
ACAD
70
0
0
ENDTAB
0
TABLE
2
DIMSTYLE
5
A
100
AcDbSymbolTable
70
1
0
ENDTAB
0
TABLE
2
BLOCK_RECORD
5
1
100
AcDbSymbolTable
70
1
0
BLOCK_RECORD
5
1F
100
AcDbSymbolTableRecord
100
AcDbBlockTableRecord
2
*MODEL_SPACE
0
BLOCK_RECORD
5
1B
100
AcDbSymbolTableRecord
100
AcDbBlockTableRecord
2
*PAPER_SPACE
0
ENDTAB
0
ENDSEC
0
SECTION
2
BLOCKS
0
BLOCK
5
20
100
AcDbEntity
100
AcDbBlockBegin
2
*MODEL_SPACE
0
ENDBLK
5
21
100
AcDbEntity
100
AcDbBlockEnd
0
BLOCK
5
1C
100
AcDbEntity
100
AcDbBlockBegin
2
*PAPER_SPACE
0
ENDBLK
5
1D
100
AcDbEntity
100
AcDbBlockEnd
0
ENDSEC
0
SECTION
2
ENTITIES
0
LWPOLYLINE
5
100
100
AcDbEntity
8
0
100
AcDbPolyline
90
46
70
1
43
0.0
10
-24.062500901109672
20
-17.111233258403558
10
-24.062500901109665
20
-18.986233258403562
10
-23.937500901139909
20
-18.986233258403562
10
-23.937500901139909
20
-17.111233258403558
10
-18.062500901139909
20
-17.111233234977295
10
-18.06250089366344
20
-18.986233234977298
10
-17.937496247033245
20
-18.986233234478856
10
-17.937496254509686
20
-17.111233234478849
10
-12.062496232598493
20
-17.111233211052557
10
-12.062496225122024
20
-18.986233211052561
10
-11.937499852481713
20
-18.986233210882954
10
-11.937499501735536
20
-17.111233210882855
10
-6.0624995017356378
20
-17.111234309887546
10
-6.0624998524817943
20
-18.986234309887312
10
-5.9374998524816309
20
-18.986234333270389
10
-5.9374995017354726
20
-17.111234333270197
10
-0.12499950173528529
20
-17.11123542058337
10
-0.12499957188452286
20
-17.486235420583515
10
4.2811493528843165e-07
20
-17.486235443966599
10
3.3458261858801688e-07
20
-17.986235443966581
10
-0.12499966541683964
20
-17.986235420583494
10
-0.12499975894915639
20
-18.48623542058349
10
2.4105030198492423e-07
20
-18.486235443966567
10
1.4751798518513852e-07
20
-18.986235443966564
10
-0.12499985248147316
20
-18.986235420583487
10
-0.12499994601378987
20
-19.486235420583458
10
5.3985668368967047e-08
20
-19.486235443966535
10
-3.9546648217739861e-08
20
-19.986235443966557
10
-0.12500003954610653
20
-19.98623542058348
10
-0.12500013307842328
20
-20.486235420583466
10
-1.3307896473339604e-07
20
-20.486235443966549
10
-2.2661127987223554e-07
20
-20.986235443966542
10
-33.002404646614615
20
-20.986229270383859
10
-33.002404506316147
20
-20.23622927038387
10
-32.752404506315173
20
-20.236229317149924
42
3.7320508076719823
10
-32.750742640383535
20
-19.736232078955929
10
-33.002404412784365
20
-19.736232031878899
10
-33.002404132187422
20
-18.23623203187892
10
-33.249344252387921
20
-18.241984361133699
42
-3.7320508075688941
10
-33.249326244522528
20
-17.741984361457988
10
-33.002404132187408
20
-17.742043984505603
10
-33.002404132187372
20
-17.111233258403558
10
-30.065579132187448
20
-17.111233258403558
10
-30.065579132187448
20
-18.986233258403562
10
-29.937500901109658
20
-18.986233258403562
10
-29.937500901109658
20
-17.111233258403558
0
ENDSEC
0
SECTION
2
OBJECTS
0
DICTIONARY
5
C
100
AcDbDictionary
3
ACAD_GROUP
350
D
3
ACAD_MLINESTYLE
350
17
0
DICTIONARY
5
D
100
AcDbDictionary
0
DICTIONARY
5
1A
330
C
100
AcDbDictionary
0
DICTIONARY
5
17
100
AcDbDictionary
0
ENDSEC
0
EOF
