0
SECTION
2
HEADER
9
$INSUNITS
70
1
9
$ACADVER
1
AC1014
9
$HANDSEED
5
FFFF
0
ENDSEC
0
SECTION
2
TABLES
0
TABLE
2
VPORT
5
8
100
AcDbSymbolTable
0
ENDTAB
0
TABLE
2
LTYPE
5
5
100
AcDbSymbolTable
0
LTYPE
5
14
100
AcDbSymbolTableRecord
100
AcDbLinetypeTableRecord
2
BYBLOCK
70
0
0
LTYPE
5
15
100
AcDbSymbolTableRecord
100
AcDbLinetypeTableRecord
2
BYLAYER
70
0
0
ENDTAB
0
TABLE
2
LAYER
5
2
100
AcDbSymbolTable
70
2
0
LAYER
5
50
100
AcDbSymbolTableRecord
100
AcDbLayerTableRecord
2
0
70
0
6
CONTINUOUS
0
ENDTAB
0
TABLE
2
STYLE
5
3
100
AcDbSymbolTable
70
1
0
STYLE
5
11
100
AcDbSymbolTableRecord
100
AcDbTextStyleTableRecord
2
STANDARD
70
0
0
ENDTAB
0
TABLE
2
VIEW
5
6
100
AcDbSymbolTable
70
0
0
ENDTAB
0
TABLE
2
UCS
5
7
100
AcDbSymbolTable
70
0
0
ENDTAB
0
TABLE
2
APPID
5
9
100
AcDbSymbolTable
70
2
0
APPID
5
12
100
AcDbSymbolTableRecord
100
AcDbRegAppTableRecord
2
ACAD
70
0
0
ENDTAB
0
TABLE
2
DIMSTYLE
5
A
100
AcDbSymbolTable
70
1
0
ENDTAB
0
TABLE
2
BLOCK_RECORD
5
1
100
AcDbSymbolTable
70
1
0
BLOCK_RECORD
5
1F
100
AcDbSymbolTableRecord
100
AcDbBlockTableRecord
2
*MODEL_SPACE
0
BLOCK_RECORD
5
1B
100
AcDbSymbolTableRecord
100
AcDbBlockTableRecord
2
*PAPER_SPACE
0
ENDTAB
0
ENDSEC
0
SECTION
2
BLOCKS
0
BLOCK
5
20
100
AcDbEntity
100
AcDbBlockBegin
2
*MODEL_SPACE
0
ENDBLK
5
21
100
AcDbEntity
100
AcDbBlockEnd
0
BLOCK
5
1C
100
AcDbEntity
100
AcDbBlockBegin
2
*PAPER_SPACE
0
ENDBLK
5
1D
100
AcDbEntity
100
AcDbBlockEnd
0
ENDSEC
0
SECTION
2
ENTITIES
0
LWPOLYLINE
5
100
100
AcDbEntity
8
0
100
AcDbPolyline
90
68
70
1
43
0.0
10
-0.12500000000002554
20
-3.4999879728046888
10
-2.5542361225939648e-14
20
-3.4999879728046888
10
2.1651971554264467e-12
20
-3.9999879728046888
10
-33
20
-3.9999879728046888
10
-33
20
-3.2499879728046888
10
-32.75
20
-3.2499879728046888
42
3.7320508075688807
10
-32.75
20
-2.7499879728046892
10
-33
20
-2.7499879728046892
10
-33
20
-1.2499879728046894
10
-33.25
20
-1.2499879728046894
42
-3.7320508075688776
10
-33.25
20
-0.74998797280468954
10
-33
20
-0.74998797280468954
10
-32.999999999999993
20
-0.12499925198251763
10
-31.999999999999996
20
-0.12499925198251763
10
-31.999999999999996
20
1.1580508306885792e-05
10
-30.062500999999997
20
1.1580508306977097e-05
10
-30.062500999999997
20
-1.9999879728046888
10
-29.937500901109658
20
-1.9999879728046888
10
-29.937500901109658
20
1.1580508306885792e-05
10
-28
20
1.1640582290822283e-05
10
-28
20
-0.12499925198251763
10
-26
20
-0.12499925198251763
10
-26
20
1.2570759510683267e-05
10
-24.062500901109672
20
1.176266804448983e-05
10
-24.062500901109672
20
-2.0000000300369938
10
-23.937500901109669
20
-2.0000000300369938
10
-23.937500901109669
20
1.1710533086857402e-05
10
-21.999999999999993
20
1.1348211950329816e-05
10
-21.999999999999993
20
-0.12499963767886345
10
-19.999999999999993
20
-0.12499963767886345
10
-19.999999999999993
20
1.0974203209161353e-05
10
-18.062500901109679
20
1.0974203209160774e-05
10
-18.062500901109679
20
-1.9999879728046888
10
-17.937500901109679
20
-1.9999879728046888
10
-17.937500901109679
20
1.1336524345684273e-05
10
-15.999999999999998
20
1.0974203209160774e-05
10
-15.999999999999998
20
-0.12499963767886485
10
-14
20
-0.12499963767886485
10
-14
20
1.060019446798822e-05
10
-12.062500901109694
20
1.0600194468122861e-05
10
-12.062500901109694
20
-1.9999996376788605
10
-11.937500901109694
20
-1.9999996376788605
10
-11.937500901109694
20
1.0962515603112432e-05
10
-10.00000090111465
20
1.0600194588761267e-05
10
-10.00000090111465
20
-0.12499963767886485
10
-8.0000009011146496
20
-0.12499963767886485
10
-8.0000009011146496
20
1.0226185388200759e-05
10
-6.0625009011146496
20
1.109854937262292e-05
10
-6.0625000006042606
20
-2.0000014089350069
10
-5.937500000604274
20
-2.0000013526534595
10
-5.937500000604274
20
1.2027195309891285e-05
10
-3.9999999999999996
20
1.2027195310045669e-05
10
-3.9999999999999996
20
-0.12499963767886485
10
-1.9999999999999998
20
-0.12499963767886485
10
-1.9999999999999998
20
1.2027195310373491e-05
10
-0.12500000000002551
20
1.2027195310373491e-05
10
-0.12500000000002551
20
-0.4999879728046896
10
-6.0428517637691658e-10
20
-0.4999879728046896
10
-6.0428521329421396e-10
20
-0.99998797280468954
10
-0.12500000000002554
20
-0.99998797280468954
10
-0.12500000000002554
20
-1.4999879728046894
10
-6.0428523188808776e-10
20
-1.4999879728046894
10
-6.042852570037818e-10
20
-1.9999879728046894
10
-0.12500000000002554
20
-1.9999879728046894
10
-0.12500000000002554
20
-2.4999879728046892
10
-6.0428525678381618e-10
20
-2.4999879728046892
10
-6.0428532256813372e-10
20
-2.9999879728046892
10
-0.12500000000002554
20
-2.9999879728046892
0
ENDSEC
0
SECTION
2
OBJECTS
0
DICTIONARY
5
C
100
AcDbDictionary
3
ACAD_GROUP
350
D
3
ACAD_MLINESTYLE
350
17
0
DICTIONARY
5
D
100
AcDbDictionary
0
DICTIONARY
5
1A
330
C
100
AcDbDictionary
0
DICTIONARY
5
17
100
AcDbDictionary
0
ENDSEC
0
EOF
